<svg xmlns="http://www.w3.org/2000/svg" id="Layer_2" data-name="Layer 2" viewBox="0 0 212.51 220.2">
  <defs>
    <style>
      .cls-1{font-size:18px}.cls-1,.cls-2{font-family:MyriadPro-BoldIt,&quot;Myriad Pro&quot;;font-style:italic;font-weight:700}.cls-3{fill:#e3d081}.cls-2{font-size:23px}.cls-5{fill:#54494b}
    </style>
  </defs>
  <g id="Layer_1-2" data-name="Layer 1">
    <ellipse id="ellipse__yellow" cx="106.87" cy="98.73" class="cls-3" rx="85.67" ry="114.66" transform="rotate(-49.92 106.857 98.721)"/>
    <ellipse id="ellipse__white" cx="106.87" cy="119.73" rx="85.67" ry="114.66" style="fill:#f1f7ed" transform="rotate(-49.92 106.857 119.724)"/>
    <text id="logo__title" class="cls-1" transform="rotate(82.98 -52.3 52.019)"><tspan x="0" y="0"> </tspan></text>
    <text class="cls-1" transform="rotate(80.88 -56.25 54.179)"><tspan x="0" y="0"> </tspan></text>
    <text class="cls-1" transform="rotate(78.85 -60.287 56.434)"><tspan x="0" y="0"> </tspan></text>
    <text class="cls-1" transform="rotate(76.9 -64.401 58.764)"><tspan x="0" y="0"> </tspan></text>
    <text class="cls-1" transform="rotate(75 -68.626 61.19)"><tspan x="0" y="0"> </tspan></text>
    <text class="cls-1" transform="rotate(73.17 -72.927 63.7)"><tspan x="0" y="0"> </tspan></text>
    <text class="cls-1" transform="rotate(71.38 -77.358 66.33)"><tspan x="0" y="0"> </tspan></text>
    <text class="cls-1" transform="rotate(69.64 -81.915 69.06)"><tspan x="0" y="0"> </tspan></text>
    <text class="cls-1" transform="rotate(67.95 -86.564 71.884)"><tspan x="0" y="0"> </tspan></text>
    <text class="cls-1" transform="rotate(66.31 -91.324 74.826)"><tspan x="0" y="0"> </tspan></text>
    <text class="cls-1" transform="rotate(64.68 -96.296 77.918)"><tspan x="0" y="0"> </tspan></text>
    <text class="cls-1" transform="rotate(63.11 -101.34 81.094)"><tspan x="0" y="0"> </tspan></text>
    <text class="cls-1" transform="rotate(61.56 -106.589 84.437)"><tspan x="0" y="0"> </tspan></text>
    <text class="cls-1" transform="rotate(60.04 -112.004 87.918)"><tspan x="0" y="0"> </tspan></text>
    <text class="cls-1" transform="rotate(58.55 -117.58 91.528)"><tspan x="0" y="0"> </tspan></text>
    <text class="cls-1" transform="rotate(57.09 -123.337 95.287)"><tspan x="0" y="0"> </tspan></text>
    <text class="cls-1" transform="rotate(55.65 -129.31 99.233)"><tspan x="0" y="0"> </tspan></text>
    <text class="cls-2" transform="rotate(50.96 -147.196 105.642)"><tspan x="0" y="0">M</tspan></text>
    <text class="cls-2" transform="rotate(44.56 -185.696 133.348)"><tspan x="0" y="0">o</tspan></text>
    <text class="cls-2" transform="rotate(40.78 -214.4 155.876)"><tspan x="0" y="0">r</tspan></text>
    <text class="cls-2" transform="rotate(36.3 -252.065 178.203)"><tspan x="0" y="0">g</tspan></text>
    <text class="cls-2" transform="rotate(31.24 -309.162 216.357)"><tspan x="0" y="0">a</tspan></text>
    <text class="cls-2" transform="rotate(25.86 -393.314 271.395)"><tspan x="0" y="0">n</tspan></text>
    <text class="cls-2" transform="rotate(20.92 -508.443 349.564)"><tspan x="0" y="0">s</tspan></text>
    <text class="cls-2" transform="rotate(17.77 -615.146 425.886)"><tspan x="0" y="0"> </tspan></text>
    <text class="cls-2" transform="rotate(13.67 -821.97 543.453)"><tspan x="0" y="0">P</tspan></text>
    <text class="cls-2" transform="rotate(7.5 -1564.088 1008.234)"><tspan x="0" y="0">e</tspan></text>
    <text class="cls-2" transform="rotate(1.96 -6197.558 3918.39)"><tspan x="0" y="0">t</tspan></text>
    <text class="cls-2" transform="rotate(-1.79 6934.132 -4337.783)"><tspan x="0" y="0"> </tspan></text>
    <text class="cls-2" transform="rotate(-7.66 1674.145 -967.564)"><tspan x="0" y="0">C</tspan></text>
    <text class="cls-2" transform="rotate(-17.33 776.32 -412.955)"><tspan x="0" y="0">a</tspan></text>
    <text class="cls-2" transform="rotate(-26.57 526.382 -259.402)"><tspan x="0" y="0">r</tspan></text>
    <text class="cls-2" transform="rotate(-36.06 403.084 -175.304)"><tspan x="0" y="0">e</tspan></text>
    <g id="head__dog">
      <path id="face__dog" d="M100.34 144.53c-6.19 15.41-21.31 15.27-27.22-.26l-11.99-31.53-11.99-31.53c-5.9-15.52 1.84-34.78 13.93-34.67l24.57.23 24.57.23c12.1.11 19.47 19.52 13.28 34.93l-12.58 31.29-12.58 31.29Z" class="cls-5"/>
      <path id="ear__dog--right" d="m69.81 50.97-24.18 59.7c-.52 1.29-2.38 1.16-2.96-.22L27.99 76.01c-6.33-14.84 1.91-30.57 16.95-32.37s17.59-2.11 17.59-2.11c4.99-.6 9.15 4.8 7.28 9.43Z" class="cls-5"/>
      <path id="ear__dog--left" d="m104.26 50.32 22.14 60.49c.48 1.31 2.34 1.24 2.97-.12l15.84-33.92c6.83-14.62-.87-30.61-15.84-32.93s-17.51-2.7-17.51-2.7c-4.96-.77-9.31 4.49-7.59 9.18Z" class="cls-5"/>
    </g>
    <g id="head__cat">
      <circle id="face__cat" cx="142.35" cy="154.93" r="40.04" class="cls-3"/>
      <path id="ear__cat--right" d="M101.28 106.79c-2.59-.54-4.85 2.19-4.06 4.91l10.95 51.04 39.25-36.5-46.13-19.45Z" class="cls-3"/>
      <path id="ear__cat--left" d="M184.21 105.81c2.59-.54 4.85 2.19 4.06 4.91l-10.95 51.04-39.25-36.5 46.13-19.45Z" class="cls-3"/>
    </g>
  </g>
</svg>
